<svg width="62" height="62" viewBox="0 0 62 62" fill="none" xmlns="http://www.w3.org/2000/svg">
<rect x="0.5" y="0.5" width="61" height="61" rx="11.5" fill="black"/>
<rect x="0.5" y="0.5" width="61" height="61" rx="11.5" stroke="#B6B6B6"/>
<g filter="url(#filter0_dddd_811_2013)">
<path d="M19.75 47H19.5V26C19.5 19.6487 24.6487 14.5 31 14.5H39.5C41.1569 14.5 42.5 15.8431 42.5 17.5C42.5 19.1569 41.1569 20.5 39.5 20.5H30C28.6193 20.5 27.5 21.6193 27.5 23V24.5C27.5 25.0523 27.9477 25.5 28.5 25.5C29.0523 25.5 29.5 25.9477 29.5 26.5V30.5C29.5 31.0523 29.0523 31.5 28.5 31.5C27.9477 31.5 27.5 31.9477 27.5 32.5V39.25C27.5 43.5302 24.0302 47 19.75 47Z" fill="white"/>
<path d="M30.5 30.5V26.5C30.5 25.9477 30.9477 25.5 31.5 25.5H41.5C42.0523 25.5 42.5 25.9477 42.5 26.5V30.5C42.5 31.0523 42.0523 31.5 41.5 31.5H31.5C30.9477 31.5 30.5 31.0523 30.5 30.5Z" fill="white"/>
</g>
<defs>
<filter id="filter0_dddd_811_2013" x="18.5" y="13.5" width="28" height="39.5" filterUnits="userSpaceOnUse" color-interpolation-filters="sRGB">
<feFlood flood-opacity="0" result="BackgroundImageFix"/>
<feColorMatrix in="SourceAlpha" type="matrix" values="0 0 0 0 0 0 0 0 0 0 0 0 0 0 0 0 0 0 127 0" result="hardAlpha"/>
<feOffset/>
<feGaussianBlur stdDeviation="0.5"/>
<feColorMatrix type="matrix" values="0 0 0 0 0.121569 0 0 0 0 0.121569 0 0 0 0 0.121569 0 0 0 0.1 0"/>
<feBlend mode="normal" in2="BackgroundImageFix" result="effect1_dropShadow_811_2013"/>
<feColorMatrix in="SourceAlpha" type="matrix" values="0 0 0 0 0 0 0 0 0 0 0 0 0 0 0 0 0 0 127 0" result="hardAlpha"/>
<feOffset dx="1" dy="1"/>
<feGaussianBlur stdDeviation="0.5"/>
<feColorMatrix type="matrix" values="0 0 0 0 0.121569 0 0 0 0 0.121569 0 0 0 0 0.121569 0 0 0 0.09 0"/>
<feBlend mode="normal" in2="effect1_dropShadow_811_2013" result="effect2_dropShadow_811_2013"/>
<feColorMatrix in="SourceAlpha" type="matrix" values="0 0 0 0 0 0 0 0 0 0 0 0 0 0 0 0 0 0 127 0" result="hardAlpha"/>
<feOffset dx="1" dy="2"/>
<feGaussianBlur stdDeviation="1"/>
<feColorMatrix type="matrix" values="0 0 0 0 0.121569 0 0 0 0 0.121569 0 0 0 0 0.121569 0 0 0 0.05 0"/>
<feBlend mode="normal" in2="effect2_dropShadow_811_2013" result="effect3_dropShadow_811_2013"/>
<feColorMatrix in="SourceAlpha" type="matrix" values="0 0 0 0 0 0 0 0 0 0 0 0 0 0 0 0 0 0 127 0" result="hardAlpha"/>
<feOffset dx="2" dy="4"/>
<feGaussianBlur stdDeviation="1"/>
<feColorMatrix type="matrix" values="0 0 0 0 0.121569 0 0 0 0 0.121569 0 0 0 0 0.121569 0 0 0 0.01 0"/>
<feBlend mode="normal" in2="effect3_dropShadow_811_2013" result="effect4_dropShadow_811_2013"/>
<feBlend mode="normal" in="SourceGraphic" in2="effect4_dropShadow_811_2013" result="shape"/>
</filter>
</defs>
</svg>
